<svg t="1589709628084" class="icon" viewBox="0 0 1024 1024" version="1.1" xmlns="http://www.w3.org/2000/svg" p-id="1107" width="200" height="200"><path d="M707.584 835.584c-4.096 0-8.192-1.024-11.264-3.584l-274.944-188.928c-9.216-6.144-11.264-18.944-5.12-28.16 6.144-9.216 18.944-11.264 28.16-5.12l246.272 169.472 54.784-643.584L160.768 409.6l237.056 165.376c9.216 6.144 11.264 18.944 5.12 28.16-6.144 9.216-18.944 11.264-28.16 5.12l-266.24-185.856c-6.144-4.096-9.216-11.264-8.704-18.432 0.512-7.168 5.12-13.312 11.776-16.384l647.68-304.128c6.656-3.072 14.336-2.56 19.968 1.536 6.144 4.096 9.216 11.264 8.704 18.432L727.04 816.64c-0.512 7.168-5.12 13.312-11.264 16.384-2.56 1.536-5.632 2.56-8.192 2.56z" fill="#666666" p-id="1108"></path><path d="M434.688 835.584c-11.264 0-19.968-8.704-20.48-19.968l-2.048-191.488c0-4.096 1.024-7.68 3.072-11.264l323.584-507.392c6.144-9.216 18.432-12.288 28.16-6.144 9.216 6.144 12.288 18.432 6.144 28.16L453.12 629.76l2.048 185.344c0 11.264-8.704 19.968-20.48 20.48 0.512 0 0.512 0 0 0z" fill="#666666" p-id="1109"></path></svg>